/* XPM */
static char *result[] = {
/* columns rows colors chars-per-pixel */
"64 53 91 1 ",
"  c #040305",
". c #0A0106",
"X c #050609",
"o c #0A060B",
"O c #05090C",
"+ c #0A090E",
"@ c #14040C",
"# c #1A030D",
"$ c #11090F",
"% c #060E11",
"& c #0C0C13",
"* c #0D0F18",
"= c #160710",
"- c #1C0612",
"; c #130C14",
": c #1B0A15",
"> c #140E19",
", c #1C0E1A",
"< c #061115",
"1 c #0C1015",
"2 c #06151A",
"3 c #0D131B",
"4 c #061A1E",
"5 c #0B191F",
"6 c #111016",
"7 c #13131C",
"8 c #1B121D",
"9 c #12181F",
"0 c #230514",
"q c #2A0415",
"w c #220A17",
"e c #240718",
"r c #2B071B",
"t c #240C1B",
"y c #2A0B1C",
"u c #310417",
"i c #320A1E",
"p c #39091F",
"a c #21111E",
"s c #2A111F",
"d c #0E1622",
"f c #071D22",
"g c #0C1B23",
"h c #0F1F29",
"j c #151621",
"k c #1B1523",
"l c #141A24",
"z c #1C1926",
"x c #1F1728",
"c c #141D29",
"v c #1C1B29",
"b c #260E21",
"n c #2C0D24",
"m c #2E0F29",
"M c #370720",
"N c #3D0721",
"B c #330D20",
"V c #3B0922",
"C c #231424",
"Z c #2B1325",
"A c #221926",
"S c #251629",
"D c #2B142A",
"F c #231B2A",
"G c #2A1A2C",
"H c #341223",
"J c #391124",
"K c #32142C",
"L c #30182F",
"P c #2B1D30",
"I c #321E34",
"U c #072026",
"Y c #092026",
"T c #0C242C",
"R c #0A282F",
"E c #13222D",
"W c #1B212D",
"Q c #0E2730",
"! c #0D2C34",
"~ c #132631",
"^ c #1C2331",
"/ c #142935",
"( c #122D39",
") c #0D333D",
"_ c #21222C",
"` c #29202F",
"' c #420723",
"] c #430923",
"[ c #490925",
"{ c #0F3740",
"} c #0D3A43",
/* pixels */
" OO%<<<OOOX    XX X.XXoXXoXoOOO+**ddddddcdd**&&OOXOX      ..@###",
".X+%%OOXOOO XX XXXXXX..XXXXOOO+&&>>jddcdcddd**%%&OOOX     o@@###",
".o+%%OXo OXOXOOXooOooooX+XooO&&;;>>>dddccccddd2d*%*%X    . ..###",
"oXo%&+ooXooOOOXXOooooXoo++O+&&;>>>ddxxcccEEchhhffff*<%   ...@##@",
"oXoO+o$oooo+O+o++++oo+++++%&&;*>,d8dxxcccvEcTQUhhfff<%OX  ...@@.",
"oXOo++oo@o+++%+<&<<+++&+&&%***>,>,kxxccx^^^~Q{!RRRff2<%X   ..#@@",
"XXoo+++$$o+&&+<<323111&&&&&<**>>,kkxxxx^^xv~{{{{{Rhf2%<OXX. .#@@",
"Xooo+;;;=;;&1<135555336&&&***>j8>kxS^^S^xP^/{{{}{Rhff2<%O   ....",
"oo+o&;;;;***11335l55999&***>d788xkxSSFFFPP^({{}{}!TTff22<X   . .",
"%&&&&&**>77333959l999777d***>7ddkxxmGGLLGSx^/({{))!TUff2<O  X   ",
"&*13;*>>773j999979996777>*77d7kkxxxmDLLLDSx^^///)))!QUf<OO      ",
"2dd397;,77llj79977786787>d77d8kjjxxSPLDDSxxxvvW~E!)!RUf<OO      ",
"gYEj7;;>>799l99z978887778djjjjjjjxxSLLLSSSxcxxvWE~!!Tf42%oX     ",
"gEEg;;=>,9zWcczl9879k88j8>7>77jkcx^SSSGDSxcvvvvvE~!TTf4<%OX     ",
"EYE98;=:79zWWWW9l8kjkk888>8j7jjlxcxxSSLDSxxvvFvWE!TTg42<OO      ",
"Ejj97;6>799WEWWzlzlzkkk88j88kjjkxxxxPxGDDSkzxxvvEETEgf<%OX      ",
"glj777>>87zzW^WWzAzzzzz8kkjlkljkcxxvxSGLLDCSxxxWcEEcd*%%oX      ",
"977737>7799_WWzzA__A_AAAzzkkkkclkxxxxxGLKKDCSxxxvEEjj**%OXX     ",
"777377778z8z_____AF`_AAzzzkcxcxxxxxxxxSILKKmmbkjllj57**+OOX  X  ",
">37j337j99AA_AF``F`AFAAxzzxxzzxzxxxkkkxSSKZbSba8k797>>*+XXX XX X",
"7*3j777jlzzAA`F```F`F`AzzzzvvvxxvxxxkkkxCCt,tba,,>**>>;oOXXXX XO",
"*73*37dlzcAAG`G```FAAAAzzxzvxxPFFvFxxj888,,,,rrt,;;*>=;oOOOXXXXX",
"*33d3jjlzzaAAGG``GFFAzzxklxxFFFFPSFSSax8>,,tbnrMr,::::;$XOOOOO%%",
"*3*333glEzzAA``FFAFAzzzzkcxxxSFGFFFSSSb8,,,tBVVMMre,,:=$oXOOOOO%",
"***d*ddjvckxFF`FFAFAzklkllAkSFSGSPmSmmx,>8ebMN[']pqyaw$$ooo$O%11",
"*22**d7ddxxxvFAFFAAxzzkl7lzxFSGPSSSSSmmbe8ebM'[[]Vpiyw:$oooOO%O1",
"*2*2>d7djllxzAAFFFFzzzlj7lkxSSGSSSSSSmmbbebeMN'[]Vpiy:6$$o$$$+11",
"<*****d7jlklxxAFAAFAxxkjlkkkSSSSSDSmbmmmnbernMMNpiuuw::$$$$o$$61",
"<%****>d7jkkkkxxAFAAAAlkkjkkAACSxbbSmmmmmmnryyiiuiqyw#=$$$$$6$$$",
"%%%*%**d777jkjkkAFAASACllkkCCCxSmkSbmmmmnBnrttyyyqqww=:$6$:$$$$$",
"*%&*****>>jjjjkkkASGSAACk8kkCCCCx8xmmmmmnnnyttyyyyyw:::$::$:$:==",
"%%%&%&&**>>7>j>kAADGDSSCCC8CCCCbbbbbSmmbrnrytyasatww::$::::$:=$#",
"%%&&&&*;>*>>>7kkCAGZLDZZCCaCCaaakbbnbnnnytyyrtbbbt,,,,:::;#$::$@",
"&&O&O&&;&;*&>7>xAAZZZZGZSZCCCaa8,,bbnbbbyyeerrytbt,akt:::::=$=@-",
"O&O&&&&&;&&;*;>78aaZZZZZZZZCaaa8,,bbebeeeeeerrrbtbbaa,,:8>::::#$",
"&O&@&+&&&=;&&**;688aAZsasaaZaa,,,b,,e-eeeeeernertbt,,,:;=;#$$$##",
"++&++&@@;;@+$+**;;78aaaa888aaw,,e:::-::-0weryiqw,ew,,::::=@#@###",
"++&&&@&&$+;+$&;&;1;;>8>:::::,,:w:,::-----0eequwq0-----=@@@@@@@#=",
"++@&&&&+;+;&$+&&&&6767>;;;;::wwwe:-===-=#:00ww0#----==###=#@@#=#",
"&&&&&;=;&;*;=o$;;1;*6776676::wwwe,,-=@==@#-00-ww--#=#@@@@@##@@@=",
"&&&;+;+;;*>*;$=&;116399768,wwwwqbe--:$##=:w##w##=#@#@@@@@@@#@###",
"*&*&;&;;;&;7;;;;;;61919668waswsqrbtt::==##::#:$$$@@@@@@@@@@@@###",
"&*&&;&&;;;>>>>:;;;;1661668wwsyysHyyyw#:#::w#:$$$$=$@.$@@.@@@@###",
"%&%;&&;;;;;>,,,;;;*;3967:,asiBBBHHBsswwwwww:w$:$;$@$$@@@@@@@####",
"%1<&*;&;&;;:>,,>;,;77766,wssiJJJVHHsiswwwww:::$:;6$$$$..@@@@@###",
"&&&**&&&;;;;,,,,,>:;;;;;6,wsHHJJJJHHBssssww::66$;$$$$$$@@@@#@###",
"O&&1&*;**;;;>k8,8,>;;;;,6wwssHHJJJKHsHsssw6:66$66$6$$$.@.@@@@@#@",
"%%&32***;>>>,,,,,88;8:;,8:wwsBHsHHKHHssAa8866$66666%$@@@@@@#####",
"&&O&1311177:7,,,6w66w:8:,,wwsssssH_sssAs_a86$666%6%6$$$@@#######",
"%%&%11113376,,k8aaa88a88888aaassssss____AA6666%1666$$$$@$#######",
"O%O+&11*3378,,kka86A88aaa88zaaaa_saA____96666%1611+6$$$#0#00q#q#",
"OOOO+%%1*7778,k89saaaaaa_z_z89Aaa_Aa_____66$O66611+$$$$wqqquqqqq",
"OOOOO++%&7>>7,k,6aaaas_sA_WW998aa_9____66666$11O1O1$$$$#qquuuqqq"
};
