/* XPM */
static char *result[] = {
/* columns rows colors chars-per-pixel */
"64 64 67 1 ",
"  c #07141D",
". c #08141E",
"X c #091622",
"o c #0A1925",
"O c #0C1C29",
"+ c #161E2B",
"@ c #10202E",
"# c #0D2335",
"$ c #0E2639",
"% c #0F2A3F",
"& c #122A3E",
"* c #0F2A40",
"= c #132C42",
"- c #182F43",
"; c #1C3146",
": c #1D364C",
"> c #1E384D",
", c #233449",
"< c #24394F",
"1 c #2D3D53",
"2 c #3A3F55",
"3 c #3D4157",
"4 c #3D4258",
"5 c #4A4456",
"6 c #44445A",
"7 c #48465C",
"8 c #4E495F",
"9 c #504B5F",
"0 c #554D61",
"q c #594F62",
"w c #5D5264",
"e c #655667",
"r c #675867",
"t c #685B68",
"y c #735C6C",
"u c #785F6E",
"i c #7B616E",
"p c #81676F",
"a c #826670",
"s c #866971",
"d c #8C6D73",
"f c #906F74",
"g c #8E7174",
"h c #8F757D",
"j c #927175",
"k c #997577",
"l c #9D7A79",
"z c #A27E7B",
"x c #A5827D",
"c c #A58483",
"v c #B69584",
"b c #BA9A86",
"n c #BF9E89",
"m c #C09F8B",
"M c #C3A38B",
"N c #C8A88F",
"B c #C5A491",
"V c #CCAC93",
"C c #D3B39A",
"Z c #DBBDAC",
"A c #DFC0AE",
"S c #E5C5AD",
"D c #E7C6B0",
"F c #EBCCB3",
"G c #F0CFB6",
"H c #F0D0B7",
"J c #F2D2B9",
/* pixels */
"................................................................",
"................................................................",
"............................X.. ................................",
".......................X..Xo$$oXXX..............................",
"................ X..  o#XX$$%*$$$$X.............................",
"................  ..Xo##X.$$%$$o.X.............X................",
"................ X X$$oX..XXXXX...............  ................",
"................ Xo$%$XX....   ............... X................",
"................X#%%$o   XXXXXXXXXXoXX XXXXX    ................",
"................o%%%$XXXo$%$%$%$$$%$$%oo$$$$oXXXX...............",
"...............X$%%%Oo$$$*%*%%%%%%%%**&$%*%*%$%$#oX.............",
"..............o$*%%=%$%%%%%%%%%=%%%=;:>>=*%%%%%**$$X............",
".... ...... .o$%**=:::=%%**%&%%&%%***=:>>>=**%%%***$o...........",
"....X .....Xo$%%**:::=%%===--===---=**==:>;=%**%%$%$#X..........",
"....    ..X$%*%%=;>=*%=-<6767887676<-=*===*%%%%%%oXXX...........",
"....X    X$%%%%%*====;677880wddw888774;=*===*%*%%$X ............",
".........o%%%%%%*-;667889980pffp08888876,66;==*%%%X ............",
"........o$%%%%%&;466888899q9q0qq0088888868876<=*%%$o............",
".......X$%%*%%%=361<688wufse0qqqisw08888888872=&%*%$X...........",
"......X$*%%%%%*=;,66880pdkkfffffkkjd00008887,=%%%%%%$X..........",
"...X..X&*%%%%*%;6700980wrfkkkkkkkkkjrdkdw0076-=%*%%%%o..........",
"...X.X$*%%*%*&=48qup0widfkkkkzlzkkkkjlvlfu0886<=%%*%%$X.........",
"..X#oX$&*%%%%%;70yawwskkkllzbMNMnzlkklbbzfq0886-**%%%$o ........",
"..X$$o$*%%%%==688000ikkkzbmmNFHDDBbzkkzbbks08006=&*%%%$X........",
"..X$%o%%%*%%%-788880skllvnMMNFGCBMMMbzklzkfq0si8-%%%%%$X........",
"..X$%$%%%%*%=:488888elvllxMNNCVNNVVSVbclkkkuqdf9-%*%%%%o........",
"...o%%**%%%%%&:7888qgbbzxBFHHHHDSHJHVMSBzkkp0wp9:*%*%%*$X.......",
"...X$%****%*%-48880ukvzlnDJJJFAccZFHVVFDmkkdq807:*%*%%%$X.......",
"...X$$**=:***;78880dklkznVCJAhe58whSFVVDMlkgq8886;$&*%%$X.......",
"....o$*=::=*-48888wfkkkbMMFFh5@oo+5jFFNNnlkjqq884=*:=**%o.......",
"....o$$*::=**<688qdkkkznMVJAw+    @eZHCMnxkjeiq6:%=::=*%$X......",
"....Xo$=::=*%=,70ufkkkznNFFc8o    O5cFFNMblkjgq7<*%=::=%%$X.....",
".... X$=:>=%==480yejklbNVFFc9o  . o9xFFNMnzkkj086=%=>>*%%%o.....",
".... X%%=:=%%=48900dkzMDVVJZw+   .@wAHVMMnvlks086;%&>:**%$X ....",
".... X$*=::=&=,8y0qjklMDFCFFk5+oo+5hFFNMbzlksw887-%*:=%%%$X ....",
".....X$***:==37qa00fklbVDDCFShw99wkAHCNMxkkje8887<*=:*%%%%o ....",
"......o$%%=%%;70y00flllzMVVJHFZccZFHGHDmlllj08087:**=%*%%%$X....",
"......X$%*%%%-6808wjvbzkznSFCFGDDGFVVDNzjzvj00y07;%*%%$oo$%X....",
".... . o%%%%%-6880sjzmblkzMVMNVNVVVMMmzkzbbg0ws04-*%%%$X.%$X....",
"....X  X$%*%*=4170wdlbmzkkbMMMMMVFSNmzklbblw0dg0<=*%%*%XX$$X....",
".......X$%*%*=:;688wjzbbxkzbMMMSFFVmblklvks0qdd8-%%%%%$XX$o.....",
".......X$*%%%%*;7880dalbvlkznbzcMMbzlkkkkw080yw7-%*%%%X.X#X.....",
"........o$%%%%%=6880ywijlkjlvzkkllzzllkjd0888086=*%*%$X. X......",
"........X$%%%**=<688080wdjkklkkkkkbbnblje888866;%*%%$o.. .......",
".........o%%*=>=*;688008wsedjjjjkkzbvzkky0876;:=%%*%$X .........",
".........X$%**::=*;40adw000idwwiffjdtddu086;>=**=%%%o...........",
"........  o$**=::=*;60iss0800880q0qqqww086;***=>:*%$X...........",
"......XXX  o$%*>:>**-<7008888888880yssy97<**%=::=%%$X...........",
"......X##oX.X$%*:>:=**=;678868886670qq04<=*%=:>:=%%o............",
".......o$$$o.o$*=:::=*%%=;46,476;->7984;=%%%%:==%%$#X...........",
"........o$%$oXo$%=**%%%*%%--*--=*-344<-%%=%%%=%%%$ooX ..........",
".........o$%%%$O%**%%%%%%%%%*%%**=-;;=*%%%%%%%%%$oo#X...........",
"..........X$%%%$%%%*%%%*%%%%*%*::>:::%%%%%*%%%$$oo$$X ..........",
"...........o$$%*%*%%%*%*%%%**%*=:::=*%%%%%%%$ooo$%%$X . ........",
"............Xoo#%$%%*%$$$%%%%%%*===*%%$%%%*$Xo$&%$$o    ........",
".............  XXo#%#oXXXo$$$%$$$$$%%$O%%$$o.#&&$XX  X X........",
"..................XXX...XXooooXXXXXXoo$$#oX..Xo@o...............",
".......................X#%$$$#X. X X$#oXX......X.....Xo.X.X.X.X.",
"........................o$$%$o.. X XXX  ............o#@o$o#o#o$X",
".........................XXXXX..    ...............o&@XX-+&O&@&o",
"....................................................@&oX,;@XO&+.",
".....................................................@&@&@&oo;X.",
"...................................................X@#oo@O#Xo#..",
"....................................................oX..X.X..X.."
};
