/* XPM */
static char *_646b5cd795945b8b14e8178efb843b9PgcJt58IXom1OsAi[] = {
/* columns rows colors chars-per-pixel */
"96 32 32 1 ",
"  c #308BD2",
". c #4292D6",
"X c #5D579C",
"o c #B7D9ED",
"O c #1179C5",
"+ c #84BBF5",
"@ c #ABC4F4",
"# c #27296B",
"$ c #C5F0E4",
"% c #EDD330",
"& c #66ABE9",
"* c #978981",
"= c #A3B7F9",
"- c #6396D7",
"; c #5AA4E4",
": c #BDE4E9",
"> c #8EC1F9",
", c #7DB6F0",
"< c #72B2EE",
"1 c #C8B353",
"2 c #397CC4",
"3 c #8390C8",
"4 c #5C82C6",
"5 c #4D498C",
"6 c #1F82CB",
"7 c #73A0DD",
"8 c #B2D2EF",
"9 c #AFCCF2",
"0 c #4F9CDE",
"q c #FFE31F",
"w c #6C64A9",
"e c #000747",
/* pixels */
"eeeeeeeeeeeeeeeeeeeeeeeeeeeeeeeee#wwwwwwwwwwwwwwwwwwwwwwwwwwww#eeeeeeeeeeeeeeeeeeeeeeeeeeeeeeeee",
"eeeeeeeeeeeeeeeeeeeeeeeeeeeeeeee#w40;;;;&&&&<&<<<,,,+++>>>>>+3w#eeeeeeeeeeeeeeeeeeeeeeeeeeeeeeee",
"eeeeeeeeeeeeeeeeeeeeeeeeeeeeeeeew4000;;;;;&&&&<<<<,,,+++>>>>>>3Xeeeeeeeeeeeeeeeeeeeeeeeeeeeeeeee",
"eeeeeeeeeeeeeeeeeeeeeeeeeeeeeeeew4000;0;;;&&&&<&<<<,,,+++>>>>@,weeeeeeeeeeeeeeeeeeeeeeeeeeeeeeee",
"eeeeeeeeeeeeeeeeeeeeeeeeeeeeeeeew.00000;;;;&&&&&<<<<,,,+++>>>>>weeeeeeeeeeeeeeeeeeeeeeeeeeeeeeee",
"eeeeeeeeeeeeeeeeeeeeeeeeeeeeeeeew.0.0000-------7-7777777,++>>>>weeeeeeeeeeeeee#5eeeeeeeeeeeeeeee",
"eeeeeeeeeeeeeeeeeeeeeeeeeeeeeeeew.0.004wwwwwwwwwwwwwwwwww3++>>>weeeeeeeeeeeeee#weeeeeeeeeeeeeeee",
"eeeeeeeeeeeeeeeeeeeeeeeeeeeeeeeew...0.w38999@@@@========4w,++>>weeeeeeeeeeeeee#weeeeeeeeeeeeeeee",
"eeeeeeeeeeeeeeeeeeeeeeeeeeeeeeeew.....w888999@@@@@=======w7+++>weeeeeeeeeeeeee#weeeeeeeeeeeeeeee",
"eeeeeeeeeeeeeeeeeeeeeeeeeeeeeeeew. ...woo88999@@@@=@=====w7+,++weeeeeeeeeee#5Xwwww5#eeeeeeeeeeee",
"eeeeeeeeeeeeeeeeeeeeeeeeeeeeeeeew ...4wooo88999@@@@======w7,,++weeeeeeeeee5ww**w11wwX#eeeeeeeeee",
"eeeeeeeeeeeeeeeeeeeeeeeeeeeeeeeew  . .woooo88999@@@@=====w7,,,+weeeeeeee#Xw*%q%wqqq1*w#eeeeeeeee",
"eeeeeeeeeeeeeeeeeeeeeeeeeeeeeeeew   .2w:oooo88999@@@@@===w7<,,,weeeeeeeeXw1q%%%wq%qq%*w#eeeeeeee",
"eeeeeeeeeeeeeeeeeeeeeeeeeeeeeeeew   ..w::oooo88999@@@=@==w7<<,,weeeeeee5w1qqw*%qqw*qq%wweeeeeeee",
"eeeeeeeeeeeeeeeeeeeeeeeeeeeeeeeew    2w:::oooo88999@@@=@=w7<<<,weeeeeeew*qqq1w***w%qqq1w#eeeeeee",
"eeeeeeeeeeeeeeeeeeeeeeeeeeeeeeeew    2w:::o:ooo88999@@@@=w7&<<<weeeeee#w1qqqq%***%qqqqqw5eeeeeee",
"eeeeeeeeeeeeeeeeeeeeeeeeeeeeeeeew66  2w:::::oooo88999@@@@w-&<<<weeeeee#w%qqqqqqqqqqqqqq*5eeeeeee",
"eeeeeeeeeeeeeeeeeeeeeeeeeeeeeeeew6 6 2w$::::o:ooo88999@@@w-<&<<weeeeee#wqqqqqqqqqqqqqqq*5eeeeeee",
"eeeeeeeeeeeeeeeeeeeeeeeeeeeeeeeew666 2w$$$::::oooo88999@@w-&&&<weeeeee#w1qqqqqqqqqqqqqqw5eeeeeee",
"eeeeeeeeeeeeeeeeeeeeeeeeeeeeeeeew666 2w$$:::::o:ooo88999@w-&&&<weeeeee#w1qqqqqqqqqqqqq%w#eeeeeee",
"eeeeeeeeeeeeeeeeeeeeeeeeeeeeeeeew66662w$$$$$::::oooo88999w-&&&&weeeeeeeXwqqqqqqqqqqqqq1weeeeeeee",
"eeeeeeeeeeeeeeeeeeeeeeeeeeeeeeeew66662w$$$$:::::o:ooo8899w-;&&&weeeeeee#w1qqqqqqqqqqq%w5eeeeeeee",
"eeeeeeeeeeeeeeeeeeeeeeeeeeeeeeeewOO662w$$$$$$$::::oooo889w-;;;&weeeeeeeeXw%qqqqqqqqqq1w#eeeeeeee",
"eeeeeeeeeeeeeeeeeeeeeeeeeeeeeeeewO6662w$$$$$$:::::o:ooo88w-;;;&weeeeeeee#w*%qqqqqqqq1w5eeeeeeeee",
"eeeeeeeeeeeeeeeeeeeeeeeeeeeeeeeewOOOO6w=$$$$$$$$::::ooo83w0;;;;weeeeeeeee#Xw1%qqqq%*wXeeeeeeeeee",
"eeeeeeeeeeeeeeeeeeeeeeeeeeeeeeeewOOO6O2wwwwwwwwwwwwwwwwww40;0;;weeeeeeeeee#5ww***www5eeeeeeeeeee",
"eeeeeeeeeeeeeeeeeeeeeeeeeeeeeeeewOOOOOO6222222222.2.4.4.00000;;weeeeeeeeeeee##555X#eeeeeeeeeeeee",
"eeeeeeeeeeeeeeeeeeeeeeeeeeeeeeeewOOOOO6O6666      .. ...0.000;;weeeeeeeeeeeeeeeeeeeeeeeeeeeeeeee",
"eeeeeeeeeeeeeeeeeeeeeeeeeeeeeeeewOOOOOO6O666666     ......00000weeeeeeeeeeeeeeeeeeeeeeeeeeeeeeee",
"eeeeeeeeeeeeeeeeeeeeeeeeeeeeeeeew2OOOOOOO66666       . ..0.0004Xeeeeeeeeeeeeeeeeeeeeeeeeeeeeeeee",
"eeeeeeeeeeeeeeeeeeeeeeeeeeeeeeee#wXOOOOOOOO666666     .......4w#eeeeeeeeeeeeeeeeeeeeeeeeeeeeeeee",
"eeeeeeeeeeeeeeeeeeeeeeeeeeeeeeeee#wwwwwwwwwwwwwwwwwwwwwwwwwwwX#eeeeeeeeeeeeeeeeeeeeeeeeeeeeeeeee"
};
