/* XPM */
static char *result[] = {
/* columns rows colors chars-per-pixel */
"64 63 213 2 ",
"   c #1E1D17",
".  c #1E1D1A",
"X  c #201D1A",
"o  c #1C201A",
"O  c #20201B",
"+  c #29221D",
"@  c #1F2525",
"#  c #232423",
"$  c #2A2521",
"%  c #252629",
"&  c #272A28",
"*  c #2A292C",
"=  c #312F2D",
"-  c #242C34",
";  c #2A2D35",
":  c #262E3A",
">  c #292F3A",
",  c #253338",
"<  c #2A323D",
"1  c #373434",
"2  c #2B3243",
"3  c #273D44",
"4  c #2C354C",
"5  c #363747",
"6  c #2E3751",
"7  c #2F3954",
"8  c #2F3C59",
"9  c #323B54",
"0  c #343D5A",
"q  c #3A3E59",
"w  c #333E60",
"e  c #37434A",
"r  c #375048",
"t  c #36475B",
"y  c #335156",
"u  c #364164",
"i  c #394264",
"p  c #3C456B",
"a  c #3C4C68",
"s  c #38576A",
"d  c #3E4771",
"f  c #3F4872",
"g  c #3B5A73",
"h  c #3C6876",
"j  c #444557",
"k  c #495552",
"l  c #466B45",
"z  c #42486A",
"x  c #47556C",
"c  c #525468",
"v  c #414A73",
"b  c #4A4F75",
"n  c #465777",
"m  c #545875",
"M  c #526F6F",
"N  c #47687B",
"B  c #546775",
"V  c #5A8A44",
"C  c #71924A",
"Z  c #6BAA47",
"A  c #7EAC4A",
"S  c #619578",
"D  c #8CB34A",
"F  c #86BD7E",
"G  c #A3AB71",
"H  c #AAC053",
"J  c #B8CB57",
"K  c #9FC36D",
"L  c #AFCC6B",
"P  c #ACCB6D",
"I  c #C5D35D",
"U  c #C9D45D",
"Y  c #C3D063",
"T  c #3E6D82",
"R  c #3E7D92",
"E  c #565D84",
"W  c #496886",
"Q  c #5A6489",
"!  c #447588",
"~  c #5A6D92",
"^  c #447A93",
"/  c #587A98",
"(  c #63688D",
")  c #657281",
"_  c #646A93",
"`  c #656E99",
"'  c #686F99",
"]  c #65749C",
"[  c #6A719B",
"{  c #6F7A9B",
"}  c #75789D",
"|  c #597FA2",
" . c #617FA3",
".. c #757DA1",
"X. c #4C808D",
"o. c #49889B",
"O. c #55859C",
"+. c #6B8796",
"@. c #6EB299",
"#. c #5888A5",
"$. c #5D8CAC",
"%. c #4B93A3",
"&. c #4B99AE",
"*. c #5793AE",
"=. c #4B9CB2",
"-. c #539CB3",
";. c #5A9AB3",
":. c #6689A9",
">. c #6894AE",
",. c #779BB8",
"<. c #5AA9AB",
"1. c #4EA3B7",
"2. c #4FA4B8",
"3. c #51A3B6",
"4. c #5BA6B5",
"5. c #52A5B9",
"6. c #5BA5BA",
"7. c #56ABB9",
"8. c #5BACBA",
"9. c #5CB2BA",
"0. c #69B1AE",
"q. c #67A7BB",
"w. c #6CAABD",
"e. c #75A8BA",
"r. c #61B4BA",
"t. c #64BABA",
"y. c #6BB9B9",
"u. c #6EC4BC",
"i. c #72C6BC",
"p. c #76CBBD",
"a. c #7BCDBE",
"s. c #7CD2BE",
"d. c #5DACC0",
"f. c #79AAC1",
"g. c #6BB0C3",
"h. c #74B4C5",
"j. c #79C5C5",
"k. c #829190",
"l. c #8BB692",
"z. c #9798B1",
"x. c #A69EB3",
"c. c #8BA7BD",
"v. c #A6A7AC",
"b. c #ADB0BC",
"n. c #88CCBE",
"m. c #82D5BE",
"M. c #86DDBF",
"N. c #8BDEBF",
"B. c #8CE2BF",
"V. c #90E7BF",
"C. c #91E8BF",
"Z. c #8AB4C6",
"A. c #87B7C8",
"S. c #97B9C9",
"D. c #A2ACC2",
"F. c #A5B7C6",
"G. c #B8BBCB",
"H. c #B5BDD2",
"J. c #88CAC5",
"K. c #99C7C1",
"L. c #9ECBC3",
"P. c #8BD2CA",
"I. c #9BD5C6",
"U. c #94DBC1",
"Y. c #9CDDC4",
"T. c #9BC5D4",
"R. c #ACC4CB",
"E. c #A6C8C9",
"W. c #B8C6CC",
"Q. c #A2DBC5",
"!. c #AAD5CD",
"~. c #B7D4CE",
"^. c #B2DBCC",
"/. c #A3C5D4",
"(. c #AAC9D5",
"). c #BDC4D5",
"_. c #B6CAD6",
"`. c #AEDAD0",
"'. c #B8D6D7",
"]. c #B5DDD4",
"[. c #8FE7C0",
"{. c #93E5C0",
"}. c #9BE5C4",
"|. c #92E8C0",
" X c #9FE5C9",
".X c #A4E4C7",
"XX c #ACE3CC",
"oX c #B2E6CC",
"OX c #BCE2D5",
"+X c #BCE3D8",
"@X c #BED6E2",
"#X c #C4CAD7",
"$X c #C5CAD7",
"%X c #CACDDC",
"&X c #CCD2DE",
"*X c #C6D9DA",
"=X c #D2D3DE",
"-X c #D6D9DF",
";X c #C3E3DA",
":X c #CBE1DB",
">X c #D2E2DD",
",X c #C9D6E1",
"<X c #D3D5E2",
"1X c #D4DAE3",
"2X c #DCDDE5",
"3X c #DDDFE8",
"4X c #E0DFE7",
"5X c #CDE1E1",
"6X c #D3E1E3",
"7X c #DDE1E6",
"8X c #DFE0E8",
"9X c #E0E0E7",
"0X c #E0E1E9",
/* pixels */
"O O X O O X o   O O O   O o X O o O X o O X O   O O X X O . . . X o . X . X # $ X . . . . . . . . . . . . . . . . . . . . * X X ",
"O o O O O O X O O     O O   o X . O O .   O X o . o X . . X O . X X X . X . O $ . . . X . . . . . . . . . . . . . . . . . . . . ",
"o O O O O O O o X O   X O X O X O   X O o O . O O . . o O . X o X X X . X . . . . . . . . . . . . . . . . . . . . . . . . . . . ",
"O X O O   O X X O X O o X O X O X O o X O X O . . O X X . X X . o X . O . X . X . . . X . X . X . . . . . . . . . . . . . . . . ",
"O O X O O X X O X O X O O O X O O O X o X o O X o X . . X o   X X X X . . X . X X . X . . . X . . . X . . . . . . . . . . . . . ",
"O O O O o O O X O   O O O   O X X O O   O O . O X O O . X X O . o X o X X . X . . X . X . . . X X . . X . . X . . . . . . . . . ",
"O O o O O O O O X O O X O X X O O X O o   O   o O   O . X X X . X X X . X . . X . . . X . X X . . . X . . X . . . . . . . . . . ",
"X O O O O X X O O X   O X O O   X O X X O X O X X O O X o X . O X X . X . X . . X . X X X X . . . X . X X . X . X . . . . . . . ",
"O O   O O O O O o O   O X O X o O X O O X O X O X O X X X   X X o X . o O   X . X X . X   X   X . X X X X . X . . X . X . X . . ",
"O O O O O   O O O O O X O X X O X O O   O X O X O X O   X X   X X X X X . . . X . . X . X   X   X . X . X X . X X . X X X . . X ",
"O   O o O O O O X X O O O X O X O   O O X O O O       O + O + ; < # O O   X   o X . . X   X   X . . . X X . . . X X X . . X . X ",
"O O O O O     O X O X O O O X O X O X X O       o e B v.v.v.v.G.R.k.X.^ h r , & . . X . X   X X . X X . . X X . X . X X X . X . ",
"O   O O   O O O X O O X X O   O O O O O O o @ s ! e.<X3X0X0X0X0X>X).Z.5.2.&.o.h t = X X X X X X X . X . . X . X . X . X . X . . ",
"O O O O O O O O O O X O O X O X O O     - y o.1.j.S.F.%X1X'.'.(.S.R.S.w.5.q.q.;.:.Q j & X X X X . X . X X . X . X . X . X . . X ",
"O O O O O O O X O O o X O X X O O O # 3 R 5.5.9.J.(.&X3X^.p.i.7.7.1.3.3.5.q.q.6.;.-.#.! 1 O X X X . . X X . X . . . . X X . X . ",
"O O O   O   O O o O O O X O   O O o s -.7.2.9.j.|.Y.].].Q.|.|.a.i.r.r.r.5.2.2.1.1.1.3.-./ 3 O X . X X . . X . X . X X . . X . X ",
"O   O O   O O   O O O O O O X O O B (.#Xc.9.u.p.[.|.|.|.|.|.|.|.B.N.P.[.y.5.2.2.2.2.3.3.O.x j + X X X X X X X X X X . X . X . X ",
"O O O O O O O + + O O o X O O # ) <X9X2XZ.9.u.s.|.|.[.|.|.|.|.|.C.V.V.|.[.y.t.7.2.5.;.#.' ( ( c X . X X X X X X X X X . X . . . ",
"o O   O o O O + O O O O O X o N ,X0X8X2XZ.6.a.|.|..X^.F.K.|.|.|.C.C.|.|.|.[.p.8.h.(.b.} ' [ [ ( q X X . X X X X X X X . . X X . ",
"O O O o O O O O o O O O O   y /.8X0X$XH.%X*X5X5X:X6X$XL.U.|.|.|.C.C.|.|.{. X X'.1X8X9Xx.' ' ' ( v 4 X X X X X X X X X X X . X X ",
"O O O o O O O o O o O O . , >.1X#X6X2X<X8X0X2X>XoXXXXX XY.'.;X;X*X:X;X;X*X1X7X0X8X8X8XG.[ ' ' ' ( z * X X + X X X X X X X X X X ",
"  o O O O o O O O O O O . N J.!.j.P.+X;X;XOXQ.{.U.XX'.1X2X3X0X0X0X0X0X0X0X0X0X0X8X%X1X-Xz.' ' ' ' E q X X X X X X X . X X X X X ",
"O O o O O O o O O O o o e c.s.M.B.B.|.|.|.}.XX!.&X2X0X8X8X8X8X7X0X0X2X%X<X2X<X_.f.g.Z.F.D.] ` ` m q p 1 X X X X X X X X X X X X ",
"+ O O O o o O O O O o o +.`.B.C.|.|.I.+X+X5X3X0X0X8X8X8X8X8X0X8X0X0XG.D.F.oXJ.8.1.2.2.5.%.! ` ( q 6 w q + X X X X X X X X X X X ",
"o O o O O O O O o     & S.=XXXC.|.U.).0X9X0X0X0X9X0X0X0X4X8X0X8X4X4XG.Q.V.n.y.4.3.2.5.3.%.! ] m 4 4 6 d * X X X X X X X X X X X ",
"o O o O O O O O O O o M T.8X>XoX|.{.(.<X4X-X<X<X<X2X7X0X3X0X3X9X4X=XD.N.N.n.w.q.6.g.S.F.:.z...N v q i d 5 X X X X X X X . X X X ",
"O O O O o O O O O o o +.I.'.2XoX|.|.{.L.].!.L.E.F.1X0X0X7X0X0X3X4X-X#X).).).).G.H.<X4X<X=Xx.] Q m q d d 5 X X X X X X . + 1 + X ",
"o   O o O O o o O o - e.].+X7X^.|.|.|.|.C.C.V.{._.3X4X3X0X3X0X0X4X9X4X4X0X7X8X2X2X9X0X0X4Xx._ _ q w b p 6 % X X X X X X + * + X ",
"O O O O o O o o o X , -.@X2X8X*X}.|.C.C.|.|.|.U._.0X3X3X0X0X0X0X8X0X4X4X7X8X8X8X9X9X9X0X2Xz.( n 0 d v i 6 * X X X X X X X X X X ",
"o o o O & o O O O   , 1.(._.1X8X:X}.C.C.|.|.|.{.I.).<X3X2X2X$X1X2X2X0X4X0X0X0X0X9X0X0X*XG.{ / W b b p 0 0 * X X X X X X X X X X ",
"O O o O $ O O O o   , <.(./.(.8X2X~.Y.C.C.C.C.|.|.{.Q.R.R.F.F.F.R.H.=X%X<X<X=X1X1X1X_.h.T.e.-.o.~ b b 6 0 % X X X X X X X X X X ",
"  o O   O o O O O   e 0.P.1X'.*X7X2X-X~.Y.C.|.|.|.|.|.|.{.{.|.{.K.F.S.I.K.e.f.H.&XA.3.3.5.4.*. ._ ~ W f 4 % X X X X X X X X X X ",
"O o O o O o O o o . B y.j.@X2XH.<X3X9X2X~.C.V.V.|.C.|.|.C.C.}.C.N.Y.{.|.V.j.A.(.A.5.2.2.2.1.#._ [ O.T h 0 * X X X X . . . X X X ",
"o O o O o O o O o . - &.2.A.2X<XH.&X2X0X>XQ.L.E.{.|.|.C.}.C.C.C.C.C.|.|.{.].!.w.2.2.2.2.1.-.] ' $.%.T s 4 % . X X X . X X X X X ",
"O   O o O   O o o   2 q.g.d.A.).<X$X1X0X9X%X#X$X~.Q.C.C.C.C.C.C.C.|.C.|.U.S.p.8.2.2.2.5.1.-.] $.1.%.T a 4 %   X X X X X X X X X ",
"O o o o O o o o o o : $.d.g.2.d.J.!.*X$X=X4X2X2X-XQ.B..XQ.C.C.V.{.|.|.|.B.y.i.8.2.2.2.2.2.-.*.3.1.%.a 2 4 # X X X X X X X X X X ",
"o o O o O o O O O   , ,.g.A._.T./.;X*X<X<X8X8X9X0X*XQ.E.E.V.V.V.U.|.|.C.m.8.8.3.2.2.2.2.2.2.2.%.o.g 7 4 4 % . X . X X X X X X X ",
"o o o O o O   o o O # W f.d.T.1X3X8X8X8X0X7X7X1X-X6X=X#X].].R.}.{.|.m.a.8.3.1.5.2.2.2.2.2.2.1.X.g 0 6 4 2 X X . X . X X X X X X ",
"o O o O o o o O o o X g ,.=.d.h.@X0X8X8X7X9X*X}.}.Q.E.~..X}.{.B.M.m.u.7.2.2.2.2.2.2.2.2.2.2.%.W i q 4 4 > X X X . . X X X . X X ",
"o o o o o O o o o o o 3 *.;.2.2.g.'.,X1X9X7XW.m.B.B.B.M.M.B.B.p.y.8.7.2.2.2.2.2.2.;.>.-.&.%.s 7 w 9 4 4 % X X X . X . X . . X X ",
"o O o O o O o o O o o @ ^ :.-.2.2.d.d.A./.).F.w.t.t.t.i.i.i.i.u.7.1.5.e.w.-.2.6.>.]  ./ n n t 0 0 4 4 4 X . X . X X X . X X . X ",
"o o o o o o O o o o o O 9  .:.=.2.2.2.2.r.h.q.2.2.2.2.t.9.7.5.7.6.A._.F.q.5.d.c.} ` ' _ E b u u 6 0 6 ; X X . X X X . X X . . . ",
"o o o O o o o o O o O o % W ] *.2.2.2.2.2.2.2.2.2.2.5.1.1.2.2.1.e.G.S.e.2.=.>.} ( b b E b v 0 6 w i 4 X X X X . X X . . X . X . ",
"o o   o O o O o o o o o   t | $.=.2.2.2.2.2.2.2.2.2.2.2.2.2.7.<.l.l.@.P l.{ ( m 9 7 v b p i 9 6 p 0 > X . X . . X . X . . X . X ",
"o o o o o o o o o o o o o o g #.*.5.2.2.2.2.2.2.2.2.2.2.1.0.P L I J I I G +.H D V t v v p 9 6 u 0 > X X . X . X . . X . X X . X ",
"o o o o o o   o o o o o o   3 W / *.1.2.2.2.2.2.5.1.2.2.@.L Y U Y U U U U U U J Z x p 0 6 7 u t 2 + X X X . X . X X . X . . X . ",
"o o o o o o o o o o o o o o . : E  .$.3.1.1.2.1.1.2.5.1.F I U U U U J J U U J A M z 9 4 0 w q < % X X X . X . X . X X . . X . X ",
"o o o o o o o o o o o o o & O . 2 E [ $.3.%.R o.&.=.=.&.S J U Y U U D Z D A C s v 9 6 w d i < % . X X X . . X . X . . X . . X . ",
"o o o o o o o o o o o o o & o o o @ w E W d W d T T T T ! K J J H C l l l r u f v w d w 8 4 @ . . . . . . . . . . @ . . X X . X ",
"o o o o o o o o o o o o o o o o o o - 4 w w w E w W g w 8 n k k k 9 6 0 u p v v v v w 8 : @ . . . . . . . . . . . . . . . . X . ",
"o o o o o o o o o o o o o o o o o o . o 4 8 w w E f E w w 8 7 8 6 u p f f f p 0 w w 4 - . . . . . . . . . . . . . . . . . . . X ",
"o o o o o o o o o o o o o o o o o o o o o @ 4 8 w w E w f f w w f f p u u 0 6 6 7 > @ . o . . . . . . . o . . . . . . . . . . . ",
"o o o o o o o o o o o o o o o o o o o o o o o o : 6 8 w f E w E a 0 9 4 6 2 2 - % X .   o . o o . . . o . . . . . . . . . . . . ",
"o o o o o o o o o o o o o o o o o o o o o o o . . . @ : : : : : > * - % - # . . X X .   o . . . . . . . o . . o . . . . . . . . ",
"o o o o o o o o o o o o o o o o o o o o o o o o . @ @ o . . o o o   .   . o o o . o . o o o . o . . . . . . . . . . . . . . . . ",
"o o o o o o o o o o o o o o o o o o o o o o o o . . o o o . o o   o o   o o . . o o . o . o o . . . . o . o o . . . . . . . . . ",
"o o o o o o o o o o o o o o o o o o o o o o o o o o o o o o o o o o o o o o o o o . o o . o o . . o . . o . . . . . . . . . . . ",
"o o o o o o o o o o o o o o o o o o o o o o o o . o o o o o o o o . o o o . o o o . o . . o o . o . o . . . o o . . . . . . . . ",
"o o o o o o o o o o o o o o o o o o o o o o o o o o o o o o o o o o . o o o o o o o . o o o o o . o . o . o o . . . o . o . . . ",
"o o o o o o o o o o o o o o o o o o o o o o o o o o o o o . o o . o o o . o o o . o o o o . o . . o . o . . . o . . . . . . o . ",
"o o o o o o o o o o o o o o o o o o o o o o o o o o o o o o o o . . o o o o o o o o . . o . . o o . . o . . o . o . o . . . . . ",
"o o o o o o o o o o o o o o o o o o o o o o o o o o o o o o o o o . o o o o o o o o o o o o o o o . @ . o o . o . o . . . . . . ",
"o o o o o o o o o o o o o o o o o o o o o o o o o o o o o o o o o o o o o o o o o o o o . o . o . @ . . . . o . o o o . . . . . "
};
