/* XPM */
static char *result[] = {
/* columns rows colors chars-per-pixel */
"64 62 240 2 ",
"   c #040317",
".  c #010A17",
"X  c #090E17",
"o  c #030318",
"O  c #090618",
"+  c #040A18",
"@  c #0B0B18",
"#  c #120E1E",
"$  c #061118",
"%  c #0B1218",
"&  c #0F191F",
"*  c #11131A",
"=  c #14191D",
"-  c #080B23",
";  c #0A1526",
":  c #141423",
">  c #161A27",
",  c #11122B",
"<  c #1A1B2B",
"1  c #181C32",
"2  c #211C31",
"3  c #19232B",
"4  c #1B2537",
"5  c #17313A",
"6  c #27262B",
"7  c #232A39",
"8  c #26353C",
"9  c #26343E",
"0  c #28423A",
"q  c #305032",
"w  c #1A2E45",
"e  c #2A2E45",
"r  c #263541",
"t  c #293542",
"y  c #2A3B44",
"u  c #283749",
"i  c #2D3B4C",
"p  c #333948",
"a  c #323B4C",
"s  c #2B3A53",
"d  c #323D54",
"f  c #333E5A",
"g  c #323F61",
"h  c #1F484C",
"j  c #224145",
"k  c #2B4346",
"l  c #2C444B",
"z  c #2C4C4D",
"x  c #35454C",
"c  c #2D514E",
"v  c #2C4455",
"b  c #2D4C52",
"n  c #374757",
"m  c #34425C",
"M  c #354B5C",
"N  c #2E5652",
"B  c #2F5952",
"V  c #2F565B",
"C  c #325B53",
"Z  c #38595A",
"A  c #37694D",
"S  c #3B774C",
"D  c #376655",
"F  c #3B7654",
"G  c #354564",
"H  c #3B4463",
"J  c #3A4D66",
"K  c #3C466B",
"L  c #3D4B6C",
"P  c #395965",
"I  c #3C4770",
"U  c #3F4971",
"Y  c #3C5972",
"T  c #3B6464",
"R  c #356569",
"E  c #3A736A",
"W  c #3D6874",
"Q  c #444A58",
"!  c #4A5257",
"~  c #46595C",
"^  c #43794B",
"/  c #47645C",
"(  c #52695E",
")  c #4B7256",
"_  c #41775D",
"`  c #61605F",
"'  c #424B64",
"]  c #424B6E",
"[  c #455768",
"{  c #445B6B",
"}  c #525769",
"|  c #414A73",
" . c #474F77",
".. c #475976",
"X. c #4A527A",
"o. c #545A78",
"O. c #4A686A",
"+. c #4B746A",
"@. c #58756B",
"#. c #476475",
"$. c #566772",
"%. c #44787A",
"&. c #597976",
"*. c #68716C",
"=. c #647B75",
"-. c #60A73F",
";. c #63AB3E",
":. c #458549",
">. c #518C49",
",. c #549445",
"<. c #559B43",
"1. c #589A49",
"2. c #528B55",
"3. c #589B56",
"4. c #619958",
"5. c #5CA242",
"6. c #5CA755",
"7. c #63AB44",
"8. c #65AB48",
"9. c #65A956",
"0. c #71B155",
"q. c #76B356",
"w. c #558D6E",
"e. c #6C9669",
"r. c #648779",
"t. c #758777",
"y. c #6B9879",
"u. c #5BA867",
"i. c #5AA876",
"p. c #69AA6A",
"a. c #79B566",
"s. c #73AA73",
"d. c #88B85A",
"f. c #87BA67",
"g. c #84B67A",
"h. c #93C17E",
"j. c #A2C67C",
"k. c #3B7685",
"l. c #535C82",
"z. c #486885",
"x. c #5B6688",
"c. c #5B7A87",
"v. c #517692",
"b. c #62688A",
"n. c #687887",
"m. c #767388",
"M. c #626993",
"N. c #656C94",
"B. c #666E99",
"V. c #686F9A",
"C. c #657497",
"Z. c #6B709A",
"A. c #76799C",
"S. c #3F8489",
"D. c #488487",
"F. c #5E8687",
"G. c #47899A",
"H. c #4C9990",
"J. c #6A8985",
"K. c #768C89",
"L. c #7B938A",
"P. c #71889A",
"I. c #7A9A9B",
"U. c #56A782",
"Y. c #55A68C",
"T. c #53A597",
"R. c #70A88C",
"E. c #4B98A5",
"W. c #4D97AC",
"Q. c #6D91AC",
"!. c #7599A5",
"~. c #52A4A8",
"^. c #4FA3B6",
"/. c #56A7BA",
"(. c #74ABAF",
"). c #859688",
"_. c #879B95",
"`. c #939393",
"'. c #8FAF8F",
"]. c #97BD86",
"[. c #97A799",
"{. c #A4B391",
"}. c #8585A2",
"|. c #928EA5",
" X c #8E97A4",
".X c #89A7A5",
"XX c #95A7A8",
"oX c #8EB1B1",
"OX c #9AB6BA",
"+X c #A7B8AA",
"@X c #B3B8A5",
"#X c #A3BBB7",
"$X c #B2B0B5",
"%X c #96C596",
"&X c #A3C984",
"*X c #A3CA9B",
"=X c #96C5A1",
"-X c #A7C8A9",
";X c #AFCEAF",
":X c #B5D5A4",
">X c #B8C4B9",
",X c #BBD6B7",
"<X c #C6DA9E",
"1X c #C6CDAD",
"2X c #C2C8B8",
"3X c #C5D9B8",
"4X c #CDE4B5",
"5X c #96B6C2",
"6X c #A4BDC5",
"7X c #97C5C7",
"8X c #AAC8CC",
"9X c #B6C9C6",
"0X c #BAD4C7",
"qX c #A9D0D6",
"wX c #BCD7D3",
"eX c #C7C9C5",
"rX c #C7D6C6",
"tX c #D6D9C9",
"yX c #CBD8D3",
"uX c #D5DDD5",
"iX c #C9E4CB",
"pX c #D9E7CB",
"aX c #DEF1CE",
"sX c #D7E6D8",
"dX c #D2EEDA",
"fX c #E5ECD7",
"gX c #E4F4D9",
"hX c #EEF3DD",
"jX c #F0F3DA",
"kX c #CBD9E2",
"lX c #D8EEE3",
"zX c #E4EAE6",
"xX c #E3F3E2",
"cX c #ECF4E6",
"vX c #EEF8E5",
"bX c #EEFBEA",
"nX c #F0F7E6",
"mX c #F3FBE5",
"MX c #F5FFE9",
"NX c #F9FFEA",
/* pixels */
"@ @ O # @ * @ @ @ @ @ * @ @ * @ @ @ @ @ O @ @ O @ @ @ @ @ O X X O @ @ @ X @ X + X + O @ X + + O X O X + O + @ + + O + + + + + + ",
"@ O O @ @ * @ * @ * @ @ @ @ @ @ @ @ O @ O @ @ O @ O O O @ @ @ O @ O O + + O @ O @ O + O O + O + + + O + + O X . + + + @ + O X + ",
"@ @ O # @ @ O * @ @ * @ @ @ @ @ @ @ O @ @ @ O @ O @ O @ X @ @ X @ X + @ O O + O X + O + X O + X + O X + + + + . + + + + + + + + ",
"O @ O O @ @ O O @ @ @ @ @ @ @ @ @ O @ X O @ @ @ @ @ O @ . O O . + O O O O + + X O O + + + + + O O + + + + + + O + O + + + + + + ",
"O O # O O * * O @ @ @ @ @ @ @ @ @ O @ O O X O O O O O O O O O O O + + + X + O + O O X O O + + + + + + + O O + O + + + + + + . + ",
"O # O O O O O O @ @ @ O @ @ O @ O X O O O O O + O O + O O +   . O O O . + O O + + + + + + + O . + + + + + . + o + + + + + o o + ",
"O # O O O O O * @ @ O @ O O O @ O O O O O O O O O X X 7 ! Q 3 0 x y w r : O @ O o . + O + O . O O . o + + + o + + o o . o + . + ",
"O O O O O * O O @ @ @ O @ O O O O + O O X O + : 5 8 j F s.(.w.:.p.w.v.oX`.o.~ 7 > o O . O + O + + O + + + + + + + + + + . + . . ",
"O O O O O O O O O @ O O O O O @ O O O   + 3 / K..X).K.J.y.'.4.<.<.'.0XiX-XL.r.w.w.q = .     . . o + + + + + . o o o . o . . o . ",
"O O O O O O # O O O O O O O O O O O O e n._.I.+X'.&Xp.a.d.q.q.8.1.+.&.+.S S S ,.u.r.o.p : O . O + + + . - + . . . o . . . . . . ",
"O O O O O O O O O O O O O O O O O , [ OXXX@.w.4.3.s.].=XiXaXaX4X{.2.S B C C C C F w.J.F.#.7 X   o + . o O o o . . o . o . . o . ",
"O O O O O O O O O O O O O O O O 1 $.c.F.2.,.p.*XiXcXMXNXNXMXMXNXmX'.A B N N c N B D F E R Z 8 $ o o . o . o . o o . - o o o o - ",
"# O O O O O O O O O O O * # O 2 XXXXv.<.,.2.qXNXNXMXMXMXMXMXMXmXmX{.^ A N O.+.Z B B N N N ..o.7 +   O o . . o o . o o o . o . . ",
"O O O O O O o O O o O O = # 2 =.}.v.3.3.E %.wXbXmXMXMXMXmXMXmX4XgXjX*X;X+X0XzX2X).C N N N P { n u - o o o . . - o . o - o . . o ",
"O O O O O O O O O o   O - - m.m.X.(.;X+XK.@.9.oXdXMXMXMXmXMXMXjXmXgX3X].'.s..XbX1Xc C +.O.P #.x. .e + o o o . o . o o . . o o o ",
"O O O O o O O O o O O   - u ..}.(.qX3X-X+Xf.].~.qXzXcXnXmXgX4X3Xj.q.8.2.A B T.fXt.{ .XsX|.M.B.Z.x.X.e + . o o o o . . o o . o . ",
"O O O   O O o O o O o O w t m OX5X/.7X0XpX&XiX=Xp.a.%X:X&Xf.7.a.:X:XrX{.A %.+Xt.O.8XMXNXeX}.B.Z.V.M.] > o . o . o o o o . o . o ",
"O O O O   O O o O O   s @.y v (.qX7X=X;X,XiXbXrX&Xg.h.%X3Xd.;.%XfXpX:Xd.e.K.@.c.5XuX$XXX9X$XZ.C.V.b.] p O o o o . o o . o o o o ",
"O O O   O O O       O !.).c N !.bXMXaXaXbXzXzXzXzXbXvXMXNX<Xq.w.oX].g.g.9X6X+X=.J.O.y 9 #.eXA.Z.b.n a d 4 o o o o o o o o o o . ",
"O     O o o O o O   s kX1X~ N T .XiXpX,X7X(.-XkXbXMXMXvXNXNXhXsXuXrX0XhXNXtX*.c N c y e f OX}.b.~ N x t 7 + o o o o o o o o o o ",
"O O O O o O o O o - Q.MXtX( N N F p.R.~.T.6.7.a.;XdXaXaXpXzXcXnXcXcXNXnXeX=.C B N N z 9 v 6X$X[ c z Z k 9 7 + o o o o o o o o o ",
"o o o o O o o o o s sXcXOX%.V R S.T.U.u.5.7.;.7.7.0.0.f.*XlXMXNXNXMXpX)./ N N N C N c y ..$X` N c z z c y 8 O o o o o o o o o o ",
"  O o O o O O o o P.NXcX(.^.E.T.u.8.7.9.6.5.;.;.0.*X3XgXvXMXhXrXeX+X*.N N N A C C N c k [ ( z N B z b ..p t <   o o o o o o o o ",
"O o O o o o o   , OXbXNX2Xp.U.U.Y.T.Y.T.^.U.i.u.p.*X4X{.R.J.&.D T C N N N N A ) N N N C z c N N ^ C x.o.t a e   o o o o o o o o ",
"o O o o o     o 1 %XxXMXmX3Xp.p.(./.U.6.i./.^.T.6.;.1.S A N N B V C B B N N :.<.D N C N C N N N D x.V.b.f g a O o o o o o o o - ",
"o o O o o o   o g -XlXMXMXMX<X8.a.Y.u.;.8.~.^.^.Y.6.:.F C N N N B B B B C C ^ >.A V N N N N N N { M.Z.o.f | H # o o o o o o - - ",
"O o o o o o o o C.:XiXdXxXNXfXd.;.8.7.7.6.U.i.T.^.H.F B N B N B N N C ^ <.^ C N N N N N N C N P x.V.Z.} g | | 2 o o o o o o o o ",
"o o o o o o o o c.4X,X).r.*Xj.8.7.;.7.7.g.f.7.3.E./.G.C N B N B N N A 5.;.1.C N B N N N N k b z.V.V.M.Q I | K 2 o o o o o o o   ",
"o o o -   o o o T iX'.t.A -.5.,.5.5.<.6.;Xj.;.:.S.^.H.C V B V V N N >.;.-.1.) c b N N N c r o.B.V.V.o.' ' g f : o O o o o o o O ",
"o o o o o o o o A dX`.C B ^ >.F :.:.<.5.8.8.<._ S.^.E N N P E.(. Xt.^ <.-.,.:.D +.&.K./ c P A.V.V.M.Q s d g ' < o o o o O o o o ",
"o   o o o o o . A dXtX( c A C D R A S <.7.>.D R E.^.z.+.F.5XkXzXcXeXXX( ,.7.r.XXK.c.#X&.K. XA.B.N.} y 8 a | f 1   o o O o o O   ",
"o o o o o o o o 5 oXvX'.c c N N R S.F S <.A V !.8XqXwX0XwXcXgX9XI.O.oX{.1.%XsX3X=.#X[.oXfX}.B.B.x.x y t g | f 2   o o o O O o O ",
"o . o o . o o o h oXxXfX).&./ N c (.pXt.B R k.qXnXfXt.%.W.wX`.Z.XXJ.-Xd.-XvXMXvXfX2XXXxXeXZ.V.b.' l m K H H a 2     O o O o   O ",
"o o . o . o . o b -X9XmXmXcX3X).J.wXMX@XR E V !.nX3XJ.J.5XfX`. X8X0Xs.R.vXMXmXpXXX0XMXhX|.N.V.X.| X. .] d H i <   O o O o O o O ",
". o o ; 4 - o o 5 !..XxXNXNXMXnXcXMXNXjX@XC c R 6XnXvXvXMXMXNXtX XQ.Y.i.#X-X_._.9XMXNXeXZ.M.o.|  .X.U K d m e <     O o O   O o ",
"o . . ; 4 @ . o - D.>X9XMXMXMXMXMXMXNXNXjX*.N R W I.xXMXMXhX@X` 9 P E.~.D.F.OXxXNXNXtX}.B.b.| K l. .| f H f e O   O   O   , > O ",
". . o - . o . o ; R OX>XyXMXmXMXMXMXMXmXMX{.P G.G.E (.MX2X*.p t t 0 b G.8XxXMXMXNXjX|.V.b.] d | X.U ] f H d e # O o o O O - O O ",
". . . o . . . . + j F.>X_.wXMXMXNXMXMXNXMXhXt.k.S.W./.oX} i t t t 9 9 Q.bXMXMXMXNX$XZ.b. .H i l. .U H u m m 7   O O O   O   O O ",
". . . . . o o . . 5 Y Q.2XL.9XrX[._.rXtXtX2XO.z v k.v.k.l y t 8 t 9 M 8XmXMXMXMXtXA.M.X.K i L l.| | p u M H > O O o O O O O O O ",
"o . . . - . . . . - J V.P.J.=.~ y r x x x y z N N P W u t 8 t t 9 n OXbXMXMXnXtX}.N.N.] a i l. .| H t d L e O O O O O   O O O O ",
". + + + . + + . . . w z.M.n.&./ a 9 8 y } O.&.@.D N N k 8 9 t t [ #XnXNXMXjX$XA.V.C.W.b y ] X.U | M N J ' > + O O O O O O O O O ",
"+ . + + + . . - . . - I z.N.[ ~ } ~ x ..kXhXhXjX*.N N c 9 t x C.kXmXMXNXnX$XZ.B.C.^.G.Y ] l.| K m C #.] e @ O O O O O O @ O @ O ",
"+ + + + + + + + + . . w o.x.x.Z x $.n.XXgXnXhX2X( N N N k l P.kXcXMXMXfX$XB.x.{ W v.v.z.X.| K K Y 2...f : O O X O O O @ O O O O ",
"+ + $ + + + + + . . . ; G { Z P k 9 k [ @.$.=.D N N N N C N V n.kXcXeX}.x.{ C Y k.W V m g f f J O...] 7 O @ O + O + O O @ @ O @ ",
"+ + + + + + + $ + + $ + ; s P Z z y t k b z N N N N N B N z k i P.A.$.P Z c V W Y R W z V G J V P | a @ O @ @ @ O @ @ @ @ @ O @ ",
"$ + $ $ $ + + + + + + + + 4 m [ n y r y y z N N N C N z z a b k y 9 l z z b V z h W S.P U U J L U d : O O X @ O @ O @ @ O @ @ O ",
"+ $ + + + $ $ + + $ $ + $ + 1 v M k t 8 9 r J ..$...{ ....b.x.Z k y k k l k y y V P J I U P L K d : O @ O @ O @ O @ @ @ @ @ @ @ ",
"$ + $ + $ + $ + $ + + + $ + + 4 k n ' n a u x.Z.V.V.V.Z.V.Z.Z.M.o.~ k k y y l J I I I I J L K u : @ @ @ @ X @ @ @ @ @ @ @ @ @ @ ",
"+ + $ + . $ $ $ $ $ $ + $ $ + + 3 u J ' ] Q ] x.Z.B.B.N.M.M.x.B.Z.o.d H f K U | | ] [ J | ' 6 * O @ @ @ @ @ @ @ @ @ @ @ @ @ @ @ ",
"$ $ $ $ $ . . $ $ + + $ $ + $ $ $ ; 4 s v m p d X.x.o. .| | | X. .H H M L U | | P P Y | H 6 = X @ % @ @ @ @ X @ @ * @ @ * @ @ * ",
"$ + + $ $ $ $ $ $ $ + + + $ + $ $ X $ 3 7 s i v f H L H m f d f y 8 i m J L P D D O.J e < @ X @ % @ % @ @ @ @ @ @ @ @ @ @ @ @ @ ",
"$ $ $ $ $ . $ $ + $ $ $ $ $ + $ % $ $ % : > w d G K K I H m f G a d s d v N M N c 0 < * @ @ @ X @ @ % @ * X @ @ @ X * @ @ * @ @ ",
"$ + $ $ $ $ $ . $ $ + $ $ X $ X $ $ % 3 6 % & = w f K K K G K K K J M M v z l 8 > % X @ * X X X % X % @ @ * @ * @ @ @ @ * @ @ @ ",
"$ $ $ $ $ $ $ $ $ $ $ X $ $ $ $ $ $ $ = 6 $ $ $ X ; > 4 7 4 7 4 r r 8 5 3 3 = % $ X @ % X X X * @ @ @ % % @ X X * @ * * @ * @ * ",
"$ $ $ $ $ $ $ $ $ $ $ $ $ $ $ $ $ % $ % $ $ $ $ X @ $ $ $ X X $ @ X X @ X @ X @ % @ % % * X X X % @ * @ @ X * @ @ * * @ * @ * @ ",
"$ $ $ $ $ $ $ $ $ $ $ $ $ $ X $ $ % $ $ $ % % $ @ % X % % % % @ % % X % % % % % % % % @ X X * * % % @ * * % X * * @ @ * @ * @ * ",
"$ $ $ $ $ $ $ $ $ : % $ $ $ % $ $ $ $ = $ % $ % % $ $ % % $ % $ % % % % % % X % X % * X * X X X * * * X @ X * * @ * * @ * * @ * ",
"$ $ $ $ $ $ & = $ $ % & % $ % $ % $ $ $ $ % % $ % % % % % % % % % % % % % % @ % * X X % % * * * X @ X X * * X @ * @ @ * * @ @ * ",
"& $ $ $ $ $ 3 6 % $ $ $ $ $ $ % % % % $ % % % = % $ $ % % % & % X % % % % % % % % % % % * * X % * * X * * * X * * * * * @ * * * ",
"& $ $ = $ $ & = $ % $ $ & % $ % % % % $ % $ $ $ % % % % % % & & % % % % % % * % % * % * % % * % X * * * X * * * * @ * @ * * * @ ",
"$ $ & $ & $ $ $ % % $ $ $ % $ $ & $ $ $ % $ & % % % % % % % 3 = % % * % % % * % % * % % * X * * * * X * * * @ * * * * * * * * * ",
"& $ $ & $ $ $ & % % $ $ % % & & % % $ = % % $ % % % % % % % % % % & 6 * * % * % % % % * * * X X * X * * * * * * * * * 6 * * * * "
};
