/* XPM */
static char *result[] = {
/* columns rows colors chars-per-pixel */
"64 64 218 2 ",
"   c #04030E",
".  c #09040E",
"X  c #030A0F",
"o  c #09090F",
"O  c #110B0F",
"+  c #040410",
"@  c #0B0410",
"#  c #040B10",
"$  c #0B0B10",
"%  c #0A0C19",
"&  c #100A10",
"*  c #140B15",
"=  c #0D1010",
"-  c #0A1419",
";  c #161318",
":  c #20161B",
">  c #0C1221",
",  c #081626",
"<  c #1C1C2A",
"1  c #1A1F33",
"2  c #261D25",
"3  c #19253A",
"4  c #2B222A",
"5  c #35292F",
"6  c #26293C",
"7  c #342D3A",
"8  c #393037",
"9  c #1A2B45",
"0  c #1C324A",
"q  c #25364B",
"w  c #3B3547",
"e  c #2B3E58",
"r  c #373C5D",
"t  c #393E5D",
"y  c #413745",
"u  c #423B45",
"i  c #35425D",
"p  c #3B4262",
"a  c #344E69",
"s  c #38516C",
"d  c #4C4147",
"f  c #484559",
"g  c #584B56",
"h  c #61545D",
"j  c #444766",
"k  c #44496B",
"l  c #514F68",
"z  c #575469",
"x  c #414B73",
"c  c #465A76",
"v  c #575A78",
"b  c #635869",
"n  c #6A5F70",
"m  c #6E6167",
"M  c #676277",
"N  c #75707B",
"B  c #495982",
"V  c #535C85",
"C  c #4A6788",
"Z  c #5A6385",
"A  c #56658A",
"S  c #58708A",
"D  c #576796",
"F  c #4D7894",
"G  c #5A7593",
"H  c #676484",
"J  c #676988",
"K  c #726C89",
"L  c #6D7189",
"P  c #787C8C",
"I  c #646B97",
"U  c #677898",
"Y  c #737296",
"T  c #757899",
"R  c #5D6FA4",
"E  c #5E70A5",
"W  c #6373A6",
"Q  c #6778A8",
"!  c #6B7BAB",
"~  c #787CA4",
"^  c #8A7E86",
"/  c #827D9C",
"(  c #847FA2",
")  c #59869F",
"_  c #65879D",
"`  c #788394",
"'  c #4D8AA0",
"]  c #5B96AD",
"[  c #4D9EB3",
"{  c #6C88A8",
"}  c #788AA3",
"|  c #7481AB",
" . c #6D82B2",
".. c #7A86B1",
"X. c #7989B4",
"o. c #7C91B9",
"O. c #4CA2B7",
"+. c #4EA4B8",
"@. c #53A7BB",
"#. c #54A6B9",
"$. c #5DAABC",
"%. c #60ADBF",
"&. c #6BAEBF",
"*. c #72A9BA",
"=. c #59AEC5",
"-. c #65AFC1",
";. c #6AB4C7",
":. c #79BBCB",
">. c #7EC5D9",
",. c #8B8288",
"<. c #818194",
"1. c #928F9B",
"2. c #96939B",
"3. c #8885A9",
"4. c #8894A9",
"5. c #999BA6",
"6. c #8386B1",
"7. c #818CB5",
"8. c #8C8AB4",
"9. c #928EB6",
"0. c #928FB8",
"q. c #8293BB",
"w. c #8897BB",
"e. c #9391B9",
"r. c #9996BB",
"t. c #939DBD",
"y. c #88A1BE",
"u. c #94A4BD",
"i. c #98A6B8",
"p. c #A5A3A4",
"a. c #A6A9BA",
"s. c #A5B0BD",
"d. c #B1B2B8",
"f. c #849BC3",
"g. c #8BAAC4",
"h. c #92A2C4",
"j. c #98A8C7",
"k. c #9BACCC",
"l. c #85BBC8",
"z. c #97B4D3",
"x. c #A2A3C2",
"c. c #A7ACC5",
"v. c #A7B4C9",
"b. c #B5B7C6",
"n. c #B3BACD",
"m. c #A4BCD6",
"M. c #ACBBD2",
"N. c #B3BED3",
"B. c #BBBFD3",
"V. c #88C5D6",
"C. c #96C9D8",
"Z. c #9ECEDE",
"A. c #99D0DF",
"S. c #BAC1CC",
"D. c #ACC1D6",
"F. c #A8C8D9",
"G. c #B3C2D6",
"H. c #BBC3D5",
"J. c #BDC9D7",
"K. c #B2C4D9",
"L. c #BBC6DA",
"P. c #B4CADC",
"I. c #BECBDB",
"U. c #AFD1D6",
"Y. c #B7D4DB",
"T. c #95CCE2",
"R. c #9ED3EC",
"E. c #BBCEE2",
"W. c #ABD8E9",
"Q. c #B6D2E5",
"!. c #BCD3E5",
"~. c #B2DAE9",
"^. c #BCDBEC",
"/. c #BDE0E9",
"(. c #C4C5C8",
"). c #C5C5D5",
"_. c #C3CBD4",
"`. c #C3CEDB",
"'. c #C6D1DD",
"]. c #C9D5DF",
"[. c #D6D6D7",
"{. c #C7D4E1",
"}. c #C9D5E2",
"|. c #C4DEE7",
" X c #CCD9E4",
".X c #C3DCEA",
"XX c #CCDEEC",
"oX c #D2DAE4",
"OX c #D4DBE6",
"+X c #C9E2E7",
"@X c #D9E1E7",
"#X c #D3E3ED",
"$X c #DCE4EA",
"%X c #C9E5F7",
"&X c #CCEAF6",
"*X c #C4E5FF",
"=X c #CDE9FE",
"-X c #D3E5F3",
";X c #DAE9F5",
":X c #D4ECFE",
">X c #DAEFFE",
",X c #D7F1F8",
"<X c #DEF1FF",
"1X c #E4E7E8",
"2X c #E4EAEE",
"3X c #F3F2ED",
"4X c #E3ECF3",
"5X c #E4EEF6",
"6X c #E4F2F6",
"7X c #EBF4F6",
"8X c #E3F3FF",
"9X c #EBF7FF",
"0X c #E7F8FC",
"qX c #EDF8FF",
"wX c #F1F5F6",
"eX c #F3F7F8",
"rX c #F4FCFE",
"tX c #FAFFFF",
/* pixels */
"o ; ; $ $ @ @ $ @ @ @ @ @ @ @ @ @ @ @ @ @ @ @ @ @ & @ & & @ @ & O @ @ & @ O @ & & @ & @ & O O & & O & & O @ O & O O & & & : ; O ",
"$ $ * @ # @ $ @ $ + $ + @ @ @ @ @ @ @ @ @ @ @ @ @ @ @ @ @ & & @ @ @ O & & @ @ & & @ & & @ & & & @ & & O & & O O & & & * & O O O ",
"# $ $ $ @ $ @ $ @ @ @ @ @ @ @ @ @ @ @ @ @ @ @ @ @ & & @ @ @ @ & & O @ @ @ & & O & & & @ & & & @ & & @ & @ & & @ & O O O O O O O ",
"$ + $ # # $ + @ $ + $ @ $ @ @ @ @ + @ @ @ @ @ @ @ @ @ @ & @ @ @ @ @ & @ O @ @ @ @ & @ & O @ O @ O @ & O O & & & & @ O O & O O O ",
"# @ # $ + $ @ # # @ @ o + + @ @ @ @ @ @ @ @ @ @ @ @ @ @ @ @ @ @ @ @ @ @ @ & @ & & @ & & @ @ & & @ @ & @ O & & & O & & & & * O O ",
"$ # $ + # @ $ + @ $ + @ @ @ @ @ @ @ @ @ @ @ @ + @ @ @ @ @ @ @ & @ & @ @ @ @ @ O @ @ @ @ & & @ . & & O @ @ & & & & & o & & O O O ",
"# $ + $ # @ $ $ # @ + @ + @ # @ @ + @ @ @ @ @ @ @ @ @ @ @ @ @ @ @ O @ @ @ & @ @ @ & @ @ @ @ @ & O @ & & @ @ O @ $ & & O & $ O & ",
"# # $ # @ # # + # @ $ + $ @ + @ @ @   @ + @ @ @ @ @ @ @ @ @ @ @ @ @ O @ @ @ @ @ @ @ @ & @ @ & @ @ @ @ O O O & & & o & o & & O $ ",
"# # # $ + # # $ + $ $ + @ @ @ + + @ @ @ @ + + @ + @ @ @ . . . . @ @ @ @ . . . @ @ @ @ & @ & . @ . & & $ & $ . & & $ $ O $ & & O ",
"# $ # + $ $ + + $ + + $ + # + @ @ + + @ + @ @ @ @ @ @ @ . . . . . . . . . . @ @ @ @ @ @ @ @ @ & & @ @ & @ @ & & O & & $ & @ & $ ",
"# # # X # # @ # + $ . + + # @ # @ @ + @ @ @ @ @     . * 7 u w f h y u u : O . . @ @ @ @ @ & @ & @ @ . @ & $ @ $ @ & @ & O & $ & ",
"# $ # $ # + # o # + # + @ @ + @ + + @ + @     + 6 v a.s.Q.;X4X7XeX1X@X1X(.d.^ d * . @ @ @ @ @ . $ @ & $ @ @ $ O $ $ O $ $ $ & o ",
"# # # X # + # + # + $ + # $ + + + + @ @   # 6 U !.8XtX9X:X:X9XtXwXV.&.l.v.!.qX2Xp.u * . . . O . @ $ & @ @ $ $ @ $ & & $ $ $ & o ",
"# # # + # $ # # # # + # + + # @ + + + + 6 ` !.8XrX8X9X0X0XrXtXtX3XU.;.+.] z.Q.!.v.a.L 7 O . . . @ @ $ @ @ & & @ @ $ @ & $ & $ & ",
"# # # # # + # + + # # + # + + + + . > c {.tXtXqXtXrXrXtXtXtXtXrX0XrX;XW.Y.}._.} C { K.v.N : o o @ @ @ @ @ $ $ $ $ $ $ . & $ $ & ",
"# # # # # # # # # + . # + + $ + . - } 8XtXtXtXtXtXtXrXrXtX9X8X>X>X8X<X<XrXrXrX Xs.u.E. X].p.8 . @ $ @ o $ @ @ @ $ . $ $ @ $ $ o ",
"# # # # # # # # # + # + # + X . > } rXtXrXrXrXrXqX9X>X>X8X<X8X8X8X8X<X>X=X<X>X=XqX4X X{.}.].5.4 . o . $ @ $ @ $ @ $ $ @ $ $ @ $ ",
"# # # # # # # # # # + # # +   > } qXrX0X8X<X8X0X<X8X8X<X>X>X>X>X,X>X*X^.=X<X>X0XeX2X XH.c.q.! Z 4 . @ @ $ @ + $ $ @ o $ $ $ $ $ ",
"# # X # + # # # # + # + +   % { 0X8X<X<X8X8X>X8X8X<XqX0X8XqXqXqX9XqX8X>X8XrXrXtXeX@X{.H.M.i.| j.1.4 . $ @ $ $ @ $ @ $ $ o $ $ $ ",
"# # # # # # # # # # + # # + a ^.<X:X=X<X>X>X8X0XrXqX7XqXtXtXtXtXtXtXtXtXtXtXtXtXwXOX{.}. Xb.Z G M.,.* . @ # @ $ @ $ # @ $ @ $ $ ",
"# # # # # # # # # # + +   0 F.<X8X>X8XrXtXrXtXtXtXwXl.W.tXtXtXtXtXtXtXtXtXtXtXtX2X}.}.'.c.| D c y.S.g o o o $ . $ @ $ $ @ $ @ $ ",
"# # # # # # # # - # # # # F ,XrXrXtXtXtXtXtXtXtXtXY.+.V.rXtXtXtXtXtXtXtXtXtXtXeXOX].'.c.X.o.U c V i.2.: . o @ o # $ + @ $ $ # $ ",
"# # # # # # # # # + # X 0 V.rXtXtX#X+X6XtX7X6X6X+X;.O.;.0XtXtXtXtXtXtXtXtXtXtXeXoX{.L.q.D.c.h.M A v.'.m . o . o @ $ @ # $ $ $ @ ",
"# # # # # # # + # # # % { 8X+X~.U.$.#.-.V.;.$.%.@.+.+.@.V.qXtXrXtXtXrXtXtXtXtXrX@XXX%XI.v.h.I.5.M. X}.d.2 . o . @ + $ # . @ # $ ",
"# X # # X X X # # # X q ^.8Xl.$.#.+.+.+.+.+.+.+.+.O.+.O.;.qXrXrX0X>X>X>XrXtXtXtX5X-X-Xh.h.`.}.{.{.{.{.N.h . + @ # @ $ . # @ $ # ",
"# - # # X - # # # X X F >X<Xl.O.#.+.@.%.-.$.O.-.C.C.C.C.%X0X<X<X>X<X>X:XrXtXtXtX9X>XOXk.E.{.{.{.{.{.{.L.,.; X # @ # + $ $ # $ @ ",
"- # # # # # # # # X - z.8X8XY.#.@.@.W.7X7XY.:.%XqXqXqXrX9X8X8X<X8X8X0XrXtXrXtXtXrX5XOX{.{.{.{.{.{.{.'.L.a.5   @ # # $ + # @ # $ ",
"X # # # # # # X # X , C.8X<X-X&.+.@.&XtXtXtX0X8XqXtXtXtXtX9X0XqXrXtXtXtXtXtXtXtXtXtX2XoX{.{.{.{.{.{.B.B.d.8   @ + @ + $ + $ # + ",
"X = = X X X X X #   i &X<X<X-X&.O.;.,XtXtXtXtX9XqXrXrXqXqXqXrXtXtXtXtXtXtXtXtXtXtXeX2XoX{.{.{.{.{.`.j.L.c.h @ . $ + + # $ $ + $ ",
"= X X - - X X X X X s qX0X<X>Xl.+.>.rXtXtXtXtXtXrXrXtXrXrXtXtXtXtXtXtXtXtXtXtXtXtXwXOX{.{.{.}.{.}.x.f.{.x.g . . + + $ + + # + # ",
"X X = - - X X X X X a qX<X:X>X~.W.&XqXtXtXtXtXtXtXtXtXrXtXtXtXtXtXtXrXrXtXtXtXtXtX2X}.{.{.{.{.}._.7.m.'.a.b o + + # + $ . # $ # ",
"= X X X = = - X X   s rX8X.XW.=XqX<X0XrXtXtXtXtXtXtXtXtXtXtXtXtX7XU.:.A.qXtXtXtXrX@X{.}.{.{.{.J.I.G.{.`.3.b o # + + # + # @ # + ",
"= X - X # X X X # X S rX/.^.C.R.=X=X>X<X9XtXtXtXtXtXtXtXtXrXqX<X^.Z.$.=.0XtXtXtXwXOX{.{.{.{.`.4.G.}.}.S.Y z . .   X # + + + # + ",
"X = X X - = X X # X a qXY.T.-X~.=X>X*X<XrXtXtXtXtXtXtX9X8X>X:X*X=X=X^.+XS.#XtXtXwXoX{.{.{.{.'.`.`.}.{.d.I n . . # . + # # # . # ",
"= X X = X X X X # X a 9X|.T.W.:X8X8X<X8XrXtXtXtX9X9X>X<X8X8X<X<X8XqXtXtX[.-XtXrXwX@X}.}.}.{.{.}.{.n.L.<.Q n + + + # + + + # # # ",
"= = = X = X - # X   a 5X7X0X,X:X<X8X>X<X8X|.W.,X9X:X*X=X=X:X8XqXrXtXtXtXtXrXrXqXtX2X X}.}.{.{.{.'.P T V 6.g + + + + + # + + # + ",
"X X = X # # # # X X 3 D.c.<XqX:X0X8X>X>X>X%XC.V.:XrX8X8X8X8XrXrXrXrXtXtXtXwXs.P.rX7X$X`.G.'.}.}.b.l x W 9.u + + + # + # # + # + ",
"= = X = # = # # X X , i.4.<XtXqX0X>X>X8X8X8X;X-X,X0XrXrXqX8X0XqXrXtXtXtXtX3XP F v.$X_.7.o.v.G._.P j s J Y 5 + + + + + + + # + # ",
"= X - X # # # # # X - S { XXtXtX8X8X8X8X0X8X9X9X#XZ.Z.Z.C.^.rXtXtXtXtXtXtX3XP C c ! | D U v g.'.b.L p p v 2 + + + # + # + + # + ",
"= = X = # X - # # # # 9 { #XtXtX9X>X!.P.g.F.tX1X*.O.O.O.+.] u.#XtXtXtXrXeX@X4.B D R W V p p w.}.S.N r k u % + + + + + + # # + # ",
"= = = X - = X X # # # - C %XtXtXtX7Xa.G _ D.tX[.) [ #.[ [ ' C g.7X4X1X Xv.7.W E E E D Z j t U J.x.( v k < + + + + + + + # # + # ",
"= X = X X X X = # = # # i m.tXtXtXtXeX@X7XtXtXwX(._ ' ) ) U G m. XH.t.! E E E E E E o.v.M x h.B.r.e.( f # + + + #   # + + + + + ",
"= X = = - X = X # # # o , g.;XtXtXtXtXtXtXtXtXtXtX1Xn.oX2X2XOXb.X.Q R R E E E E R  .P.J.i.x.B.x.e.e.3.7 + + + + + + + + + # # + ",
"= = = X X = X = # = # # # s P.;XtXtX).j.XXeXtXtXtXtXtXtXtXtXb.W W R R W E E E E ! j.u.X.m.n.x.0.9.e.n + + + + + + + + # + + + # ",
"= = = = X X = X = # # o % < { {.5XtX).Q ! 7.k.L.L.L.L.E.2XoXt.E R W R R W R W W  . .Q 7.x.0.0.0.3.Y 4   + + + + + + + + # + # + ",
"X = X = = = X = # # $ # # ; 3 g.}.4XtXb.Q R E E E R R E ! ! E R R E R R E Q | !  .Q ..8.~ 8.0.0.( y     + + % % + # + + + + + # ",
"= = = X = X = X # = $ # # o # e t.h.E.rX).! E E R R E E E E R R R R D D  .j.! W | 6.3.~ 8.0.0.( y +   + + + # + + + + + + + + # ",
"= = = X - = = X = # $ = # $ $ @ q J q.#X4X).j.w.q.X.W R R E Q o.L k r r A X.! 7.8.0.8.8.0.0.3.y +   + + + + + + + + # + + # + + ",
"= = X = # = # = = # = - # o # # . 3 B z.{.}.].L.N.M.c.h.h.j.K.{.2.f t k ~ B.c.h.0.0.0.9.9./ w + + + + + + + + + + + + + + + + # ",
"= = = = = = = # # = = = = o o = X $ 9 U k.`.{.{.B.N.M.M.N.].}._.M r t I N.B.r.0.0.0.0.9.K f @ + + + + + + + + + + + + + + + + + ",
"= = = X = X = = = # = # o = o o $ # $ > c w.K.b.e.h.j.v.M.v.i.<.j r p p A ~ Y Y 0.0.8.M 2 @ + + + + + + + + + + + + + + + # + # ",
"= = = = = = # X # = # = o o = # # $ $ . + 3 V ..( 6.8.r.x./ v j r p k k k V ~ 8.8.K w * + + + + + + + + + + + + + + + + + + + + ",
"= = X = = = = = = # = # # = $ # o $ # # $ . # 1 x I 6.8.e.e.0.3.Y T 8.8.6.8.( M 7 *   + + + + + + + + + + + + + + + + + + + # + ",
"= = = = = X = X = $ = $ = o $ $ $ # $ $ # $ o o @ > 6 w v J H J H H H z w 7 < @   + @ + + + + @ + + + + + + + + + + + + + + + + ",
"= = = = = X = = o = = $ = o $ $ $ $ $ # $ @ # @ @ + . . % $ $ @ @ % @ @     .   + + + + + @ + + + + + + + + + + + + + + + + + # ",
"= = = = = = = = $ = $ = # $ $ = $ $ $ $ $ $ $ @ @ @ $ + . @ + @ + @ @ + + @ + + @ @ + @ + + @ + + + + + + + @ + + + + + # + + + ",
"= = = = = = = = = = $ = $ o $ = $ $ $ $ $ $ $ $ $ $ @ # @ # @ + @ + @ + @ @ + @ + @ + + @ + + @ + @ @ + @ + + + + + + + + + + + ",
"= = = = = = o = = $ = $ $ = $ $ o $ $ $ $ $ $ @ $ @ $ @ $ @ $ @ $ @ @ + @ + @ + @ + @ + + @ + @ + + + + + + @ + + + + + + @ + + ",
"= = = = = = = O = o = = = $ $ = $ $ $ & $ $ $ $ @ # @ $ @ $ + $ @ + @ @ @ @ @ + + @ @ + @ + @ + @ + @ + + + + + + + + + + + + + ",
"= = = = = = = = $ = = $ $ = $ $ = $ $ = $ $ $ o $ @ $ $ + @ @ $ @ @ $ + @ + @ @ @ @ + @ @ + @ + + @ + @ + @ @ + + + @   @ + + + ",
"= = = = = O = ; = = = = $ = & = $ $ $ o $ $ $ $ $ @ $ @ $ @ @ @ @ @ @ @ + @ @ + @ + @ + @ + + @ @ @ @ + + + @   + + @ + + + + + ",
"= = = = = = = O O = & $ = o $ $ & = $ $ $ & $ o o $ $ $ $ @ $ @ $ $ @ @ @ @ @ @ @ @ @ @ @ @ @ + + @ * @ @ + + @ @ @ + + + @ + @ ",
"; = ; O = = = = = = O = = = = & & o o & & o @ & & o @ $ $ @ @ $ @ @ @ @ + @ @ @ @ + @ @ + @ @ @ @ @ * @ + @ @ + + @ @ + @ + + @ ",
"= = = = = = = = & = = = & $ O = = $ & $ $ & $ $ $ $ & @ $ @ $ @ $ @ @ @ @ @ @ @ @ @ @ @ + @ @ + @ @ @ @ @ @ + @ + @ + @ + + @ + "
};
